HIERARCHY
ROOT Hips
{
	OFFSET 0.000000 0.000000 0.000000 
	CHANNELS 6 Xposition Yposition Zposition Zrotation Yrotation Xrotation
	JOINT LeftUpLeg
	{
		OFFSET 0.000000 0.000000 0.000000 
		CHANNELS 3 Zrotation Yrotation Xrotation
		JOINT LeftLeg
		{
			OFFSET 3.811170 -8.520760 0.839290 
			CHANNELS 3 Zrotation Yrotation Xrotation
			JOINT LeftFoot
			{
				OFFSET 2.562200 -7.039590 0.000000 
				CHANNELS 3 Zrotation Yrotation Xrotation
				JOINT LeftToeBase
				{
					OFFSET 0.157640 -0.433110 2.322550 
					CHANNELS 3 Zrotation Yrotation Xrotation
					End Site
					{
						OFFSET 0.000000 0.000000 0.000000 
					}
				}
			}
		}
	}
	JOINT RightUpLeg
	{
		OFFSET 0.000000 0.000000 0.000000 
		CHANNELS 3 Zrotation Yrotation Xrotation
		JOINT RightLeg
		{
			OFFSET -3.848050 -8.780180 0.839290 
			CHANNELS 3 Zrotation Yrotation Xrotation
			JOINT RightFoot
			{
				OFFSET -2.568260 -7.056230 0.000000 
				CHANNELS 3 Zrotation Yrotation Xrotation
				JOINT RightToeBase
				{
					OFFSET -0.164730 -0.452590 2.363150 
					CHANNELS 3 Zrotation Yrotation Xrotation
					End Site
					{
						OFFSET 0.000000 0.000000 0.000000 
					}
				}
			}
		}
	}
	JOINT Spine
	{
		OFFSET 0.000000 0.000000 0.000000 
		CHANNELS 3 Zrotation Yrotation Xrotation
		JOINT Spine1
		{
			OFFSET 0.084990 4.084440 -0.236130 
			CHANNELS 3 Zrotation Yrotation Xrotation
			JOINT Neck
			{
				OFFSET 0.000000 0.000000 0.000000 
				CHANNELS 3 Zrotation Yrotation Xrotation
				JOINT Head
				{
					OFFSET 0.049900 3.507600 0.048050 
					CHANNELS 3 Zrotation Yrotation Xrotation
					End Site
					{
						OFFSET 0.000000 0.000000 0.000000 
					}
				}
			}
			JOINT LeftArm
			{
				OFFSET 0.000001 0.000000 0.000000 
				CHANNELS 3 Zrotation Yrotation Xrotation
				JOINT LeftForeArm
				{
					OFFSET 4.050000 1.200890 -0.311210 
					CHANNELS 3 Zrotation Yrotation Xrotation
					JOINT LeftHand
					{
						OFFSET 3.483560 -0.000000 -0.000000 
						CHANNELS 3 Zrotation Yrotation Xrotation
						JOINT LeftFingerBase
						{
							OFFSET 0.000000 0.000000 0.000000 
							CHANNELS 3 Zrotation Yrotation Xrotation
							End Site
							{
								OFFSET 0.000000 0.000000 0.000000 
							}
						}
					}
				}
			}
			JOINT RightArm
			{
				OFFSET 0.000000 0.000000 0.000000 
				CHANNELS 3 Zrotation Yrotation Xrotation
				JOINT RightForeArm
				{
					OFFSET -3.978500 1.374050 -0.404650 
					CHANNELS 3 Zrotation Yrotation Xrotation
					JOINT RightHand
					{
						OFFSET -3.444170 -0.000000 -0.000000 
						CHANNELS 3 Zrotation Yrotation Xrotation
						JOINT RightFingerBase
						{
							OFFSET 0.000000 0.000000 0.000000 
							CHANNELS 3 Zrotation Yrotation Xrotation
							End Site
							{
								OFFSET 0.000000 0.000000 0.000000 
							}
						}
					}
				}
			}
		}
	}
}
MOTION
Frames: 6
Frame Time: 0.008333
4.077666 15.525955 -1.199826 -10.048302 -34.620708 4.381141 -2.226194 13.680174 -36.074150 0.052099 22.957319 43.111195 -4.322297 11.890096 -24.526039 0.000000 0.000000 0.000000 9.862919 -26.018602 14.917593 -7.747619 3.819073 22.037109 -2.588748 20.359812 -30.610453 0.000000 0.000000 0.000000 0.696499 0.313095 8.932668 2.372478 0.815584 -6.799687 -1.624228 0.653658 -1.322774 0.000000 0.000000 0.000000 -23.947109 -37.499168 9.662622 107.009399 -54.141869 -0.000000 0.000000 0.000000 0.000000 0.000000 0.000000 0.000000 41.055248 61.510025 30.675652 -101.759773 26.136658 0.000000 0.000000 0.000000 0.000000 0.000000 0.000000 0.000000 
4.056197 15.496872 -1.153813 -10.214850 -33.904438 4.311746 -2.362837 14.317942 -36.329414 -0.103513 23.270647 42.117786 -4.224609 11.986910 -24.974886 0.000000 0.000000 0.000000 9.710846 -26.598614 15.521284 -7.669449 3.603789 21.775629 -2.612790 20.196896 -30.925348 0.000000 0.000000 0.000000 0.856478 0.281989 8.937296 2.360402 0.823986 -6.796781 -1.599669 0.656392 -1.340981 0.000000 0.000000 0.000000 -24.470230 -37.348267 8.953914 105.835762 -55.975018 -0.000000 0.000000 0.000000 0.000000 0.000000 0.000000 0.000000 40.254292 61.991592 30.527351 -101.591568 24.979799 0.000000 0.000000 0.000000 0.000000 0.000000 0.000000 0.000000 
4.034728 15.467790 -1.107800 -10.382751 -33.199837 4.245849 -2.475710 14.953794 -36.604828 -0.335059 23.612602 41.101437 -4.120167 12.103405 -25.393848 0.000000 0.000000 0.000000 9.565414 -27.160307 16.116465 -7.588422 3.387378 21.517179 -2.634074 20.032684 -31.233719 0.000000 0.000000 0.000000 1.015326 0.257520 8.934060 2.347534 0.837100 -6.807270 -1.578545 0.659250 -1.341116 0.000000 0.000000 0.000000 -24.991253 -37.196663 8.103333 104.433327 -57.958195 -0.000000 0.000000 0.000000 0.000000 0.000000 0.000000 0.000000 39.400925 62.475529 30.381096 -101.411606 23.792688 0.000000 0.000000 0.000000 0.000000 0.000000 0.000000 0.000000 
4.013259 15.438707 -1.061787 -10.551903 -32.507889 4.184164 -2.561956 15.583364 -36.901062 -0.644913 23.981115 40.064396 -4.009312 12.239991 -25.779709 0.000000 0.000000 0.000000 9.427584 -27.703018 16.701874 -7.504706 3.169880 21.261934 -2.652235 19.867174 -31.535728 0.000000 0.000000 0.000000 1.173117 0.240018 8.921481 2.333467 0.855079 -6.834117 -1.561202 0.662214 -1.320485 0.000000 0.000000 0.000000 -25.513519 -37.041836 7.086179 102.732391 -60.113453 -0.000000 0.000000 0.000000 0.000000 0.000000 0.000000 0.000000 38.496372 62.959660 30.238693 -101.220276 22.576647 0.000000 0.000000 0.000000 0.000000 0.000000 0.000000 0.000000 
3.992513 15.406869 -1.012234 -10.734285 -31.761292 4.092106 -2.712728 16.194719 -37.179001 -0.913479 24.375002 39.147442 -3.954086 12.398602 -26.279327 0.000000 0.000000 0.000000 9.269159 -28.251493 17.330740 -7.414227 2.933632 21.026924 -2.664701 19.688814 -31.846655 0.000000 0.000000 0.000000 1.355076 0.226128 8.914619 2.309166 0.881327 -6.891737 -1.542564 0.666390 -1.269752 0.000000 0.000000 0.000000 -26.243576 -36.902847 5.851508 100.481041 -62.714336 -0.000000 0.000000 0.000000 0.000000 0.000000 0.000000 0.000000 37.612320 63.421783 30.125843 -101.070465 21.283775 0.000000 0.000000 0.000000 0.000000 0.000000 0.000000 0.000000 
3.972517 15.372168 -0.959004 -10.928855 -30.956720 3.968634 -2.935456 16.789427 -37.436581 -1.124128 24.793034 38.358971 -3.959276 12.572585 -26.915762 0.000000 0.000000 0.000000 9.089058 -28.804790 18.004639 -7.315905 2.677171 20.812906 -2.669748 19.496037 -32.166019 0.000000 0.000000 0.000000 1.558813 0.213139 8.912590 2.277938 0.914661 -6.989919 -1.523466 0.671913 -1.188434 0.000000 0.000000 0.000000 -27.191681 -36.756821 4.286561 97.357849 -65.859619 -0.000000 0.000000 0.000000 0.000000 0.000000 0.000000 0.000000 36.744213 63.871140 30.055489 -100.959236 19.906025 0.000000 0.000000 0.000000 0.000000 0.000000 0.000000 0.000000 
